<svg width="32" height="32" viewBox="0 0 32 32" fill="none" xmlns="http://www.w3.org/2000/svg">
<path d="M16.0399 8.48446C14.5535 8.48446 13.1006 8.9252 11.8648 9.75095C10.629 10.5767 9.66574 11.7504 9.09696 13.1236C8.52817 14.4967 8.37935 16.0077 8.66931 17.4655C8.95928 18.9233 9.67501 20.2623 10.726 21.3133C11.777 22.3643 13.116 23.08 14.5738 23.37C16.0315 23.6599 17.5425 23.5111 18.9157 22.9423C20.2889 22.3735 21.4626 21.4103 22.2883 20.1745C23.1141 18.9387 23.5548 17.4857 23.5548 15.9994C23.5548 14.0063 22.7631 12.0949 21.3537 10.6855C19.9444 9.27621 18.033 8.48446 16.0399 8.48446ZM16.0399 21.0094C15.049 21.0094 14.0804 20.7155 13.2565 20.165C12.4326 19.6145 11.7905 18.8321 11.4113 17.9166C11.0321 17.0012 10.9329 15.9938 11.1262 15.022C11.3195 14.0502 11.7966 13.1575 12.4973 12.4568C13.1979 11.7562 14.0906 11.279 15.0625 11.0857C16.0343 10.8924 17.0416 10.9916 17.9571 11.3708C18.8725 11.75 19.655 12.3921 20.2055 13.216C20.756 14.0399 21.0498 15.0085 21.0498 15.9994C21.0457 17.3269 20.5165 18.5988 19.5779 19.5374C18.6392 20.4761 17.3673 21.0052 16.0399 21.0094ZM22.9286 0.343262H9.15116C6.82589 0.343262 4.59586 1.26697 2.95164 2.91119C1.30743 4.5554 0.38372 6.78543 0.38372 9.1107V22.8881C0.38372 25.2134 1.30743 27.4434 2.95164 29.0876C4.59586 30.7318 6.82589 31.6555 9.15116 31.6555H22.9286C25.2538 31.6555 27.4839 30.7318 29.1281 29.0876C30.7723 27.4434 31.696 25.2134 31.696 22.8881V9.1107C31.696 6.78543 30.7723 4.5554 29.1281 2.91119C27.4839 1.26697 25.2538 0.343262 22.9286 0.343262ZM29.191 22.8881C29.191 23.7105 29.029 24.5248 28.7143 25.2846C28.3996 26.0444 27.9383 26.7348 27.3568 27.3163C26.7753 27.8979 26.0849 28.3591 25.3251 28.6739C24.5653 28.9886 23.751 29.1506 22.9286 29.1506H9.15116C8.32876 29.1506 7.51442 28.9886 6.75462 28.6739C5.99483 28.3591 5.30446 27.8979 4.72293 27.3163C4.14141 26.7348 3.68012 26.0444 3.3654 25.2846C3.05069 24.5248 2.8887 23.7105 2.8887 22.8881V9.1107C2.8887 7.44979 3.5485 5.85691 4.72293 4.68248C5.89737 3.50804 7.49025 2.84824 9.15116 2.84824H22.9286C23.751 2.84824 24.5653 3.01023 25.3251 3.32495C26.0849 3.63966 26.7753 4.10095 27.3568 4.68248C27.9383 5.264 28.3996 5.95437 28.7143 6.71416C29.029 7.47396 29.191 8.2883 29.191 9.1107V22.8881ZM26.0598 7.85821C26.0598 8.22979 25.9496 8.59302 25.7432 8.90198C25.5367 9.21094 25.2433 9.45174 24.9 9.59394C24.5567 9.73613 24.179 9.77334 23.8145 9.70085C23.4501 9.62836 23.1153 9.44942 22.8526 9.18668C22.5898 8.92393 22.4109 8.58917 22.3384 8.22473C22.2659 7.86029 22.3031 7.48254 22.4453 7.13925C22.5875 6.79595 22.8283 6.50253 23.1373 6.2961C23.4462 6.08966 23.8095 5.97947 24.1811 5.97947C24.6793 5.97947 25.1572 6.17741 25.5095 6.52974C25.8619 6.88207 26.0598 7.35994 26.0598 7.85821Z" fill="white"/>
</svg>
