<svg width="42" height="26" viewBox="0 0 42 26" fill="none" xmlns="http://www.w3.org/2000/svg">
<path fill-rule="evenodd" clip-rule="evenodd" d="M41.0297 2.64606C41.3354 1.70419 41.0297 1.01949 39.677 1.01949H35.1792C34.0446 1.01949 33.5207 1.61902 33.215 2.2603C33.215 2.2603 30.9012 7.73787 27.6702 11.2891C26.6224 12.3161 26.1423 12.6585 25.5746 12.6585C25.2689 12.6585 24.8755 12.3161 24.8755 11.3751V2.60181C24.8755 1.4896 24.5268 0.976074 23.5658 0.976074H16.4922C15.7931 0.976074 15.3568 1.4896 15.3568 2.00312C15.3568 3.07275 16.9723 3.32993 17.1467 6.32505V12.833C17.1467 14.245 16.889 14.503 16.317 14.503C14.7891 14.503 11.078 8.98284 8.8519 2.69282C8.41904 1.44701 7.97931 0.976074 6.8439 0.976074H2.30315C0.993402 0.976074 0.775253 1.57477 0.775253 2.21688C0.775253 3.37251 2.30315 9.19159 7.8917 16.8936C11.6028 22.1541 16.8856 24.9814 21.6445 24.9814C24.5268 24.9814 24.8755 24.3392 24.8755 23.2696V19.29C24.8755 18.0066 25.1375 17.7929 26.0547 17.7929C26.7092 17.7929 27.8884 18.1344 30.5517 20.6594C33.6075 23.6545 34.1314 25.0239 35.8345 25.0239H40.3314C41.6412 25.0239 42.2527 24.3818 41.9031 23.141C41.5106 21.9002 40.0257 20.1033 38.1044 17.9641C37.0566 16.7667 35.4849 15.4399 35.0048 14.7978C34.3504 13.9419 34.5247 13.5995 35.0048 12.8297C34.961 12.8297 40.4628 5.21284 41.0297 2.64273" fill="white"/>
</svg>
